# xmcd CD database file
#
# Track frame offsets:
#	150
#	21039
#	41909
#	60955
#	79517
#
# Disc length: 1337 seconds
#
# Revision: 0
# Processed by: cddbd v1.5.2PL0 Copyright (c) Steve Scherf et al.
# Submitted via: CDex 1.50Beta7
#
DISCID=30053705
DTITLE=Azambujas Blues Band - Passá o Chapéu
DYEAR=2006
DGENRE=Blues
TTITLE0=Shuffle em Eb
TTITLE1=Passá o Chapéu
TTITLE2=Pickin' on Me
TTITLE3=Shame, Shame, Shame
TTITLE4=The Pusher
EXTD=YEAR: 2006
EXTT0=
EXTT1=
EXTT2=
EXTT3=
EXTT4=
PLAYORDER=
